<svg xmlns="http://www.w3.org/2000/svg" xmlns:xlink="http://www.w3.org/1999/xlink" version="1.1" x="0px" y="0px" viewBox="0 0 53 66.25" style="enable-background:new 0 0 53 53;" xml:space="preserve"><g><path fill="rgb(120, 214, 204)" d="M25.2873669,33.687664c-0.0362206,0.0210762-0.0675583,0.0392494-0.0927143,0.053833   c0.025713-0.0148926,0.0527859-0.0305939,0.0796719-0.0462303C25.2781563,33.6930389,25.2837811,33.6897659,25.2873669,33.687664z"/><path fill="rgb(120, 214, 204)" d="M9.6750536,20.4586506l14.8836451,8.5925217l14.7424717-8.5667477L24.4175262,11.891901L9.6750536,20.4586506z    M16.1845474,21.7885971c-0.1459942,0.252058-0.4680195,0.3388996-0.7200775,0.1925983l-2.2662945-1.3093033   c-0.2524281-0.1452522-0.3389616-0.4677105-0.1926594-0.7200775s0.4697504-0.3379116,0.7200775-0.1926594l2.2663555,1.3093662   C16.2443161,21.2137718,16.3308487,21.5361691,16.1845474,21.7885971z M18.29533,20.5616856   c-0.1447582,0.252552-0.4683914,0.3386517-0.7200775,0.1925964l-2.2673454-1.3082523   c-0.2523661-0.1452503-0.3388996-0.4677086-0.1926584-0.7200756c0.1442623-0.2524281,0.4666586-0.3410015,0.7200766-0.1926594   l2.2674065,1.3083134C18.3550987,19.9868603,18.4416313,20.3092575,18.29533,20.5616856z M20.4051228,19.335762   c-0.1447563,0.252615-0.4684505,0.3387146-0.7200756,0.1926594l-2.2674084-1.3083134   c-0.252367-0.1452522-0.3388996-0.4676495-0.1925964-0.7200775c0.1442013-0.252367,0.4656086-0.3409386,0.7200756-0.1925964   l2.2673454,1.3082523C20.4648304,18.7609367,20.551363,19.0833969,20.4051228,19.335762z M22.5148544,18.1099014   c-0.1459923,0.252058-0.4680195,0.3388996-0.7200756,0.1926594l-2.2663574-1.3093643   c-0.252367-0.1452522-0.3388996-0.4676495-0.1925964-0.7200775c0.1462402-0.252367,0.4686985-0.3378487,0.7200756-0.1925964   l2.2662945,1.3093033C22.574625,17.5350761,22.6611576,17.8575344,22.5148544,18.1099014z M24.6256371,16.8840408   c-0.1446953,0.252367-0.4685745,0.3385296-0.7200756,0.1925964l-2.2673454-1.3093023   c-0.25243-0.1452513-0.3389626-0.4677095-0.1926594-0.7200766c0.1452522-0.252367,0.4686985-0.3379107,0.7200756-0.1926594   l2.2673454,1.3093643C24.6854076,16.3092155,24.7719402,16.6316128,24.6256371,16.8840408z M26.7353687,15.6571293   c-0.1447563,0.252552-0.4683895,0.3386526-0.7200756,0.1925974l-2.2673454-1.3082523   c-0.252367-0.1452522-0.3388996-0.4677105-0.1926594-0.7200775c0.1442623-0.2524281,0.4666595-0.3399496,0.7200775-0.1926584   l2.2674065,1.3083143C26.7951393,15.082304,26.8816719,15.4047003,26.7353687,15.6571293z"/><polygon fill="rgb(120, 214, 204)" points="42.956192,27.6079292 45.1159286,28.8520241 46.4288177,28.0878162 46.4301147,27.6278324 44.6672554,26.6117516     "/><polygon fill="rgb(120, 214, 204)" points="37.7456818,30.6355267 39.9054184,31.8796215 41.6159248,30.8840618 39.4567451,29.6403999  "/><path fill="rgb(120, 214, 204)" d="M32.5351677,33.6641769l2.1606026,1.244648c-0.1082878,0.0630455,1.6021538-0.9341202,1.7088394-0.9962997   l-2.1583786-1.2445297L32.5351677,33.6641769z"/><path fill="rgb(120, 214, 204)" d="M24.4123955,8.0546036L3.0513995,20.4677353c2.7443264,1.5843544,21.2694569,12.279377,21.5084724,12.4174576   c0.0133514-0.0077248,0.0542698-0.0313988,0.1281929-0.0744171c-0.0279369,0.0161934-0.0527859,0.0306587-0.0746651,0.0433273   c0.0831947-0.0482712,0.1459923-0.0848007,0.1902485-0.1105118c-0.0031528,0.0017929-0.0061817,0.003582-0.0093956,0.0054359   c0.0080357-0.0046959,0.0147114-0.0085297,0.0233021-0.0135345c0.0092106-0.0053139,0.0194702-0.0112495,0.0269489-0.0156364   c0.0171223-0.0100136,0.0389404-0.022625,0.0579777-0.0336876c-0.0029678,0.0017319-0.0096436,0.0056267-0.0200882,0.0116806   c0.0150814-0.0087738,0.0230541-0.0134125,0.0211391-0.0122375c1.1433449-0.6641998,5.6589355-3.2873192,21.0215397-12.2115097   L24.4123955,8.0546036z M24.8244781,30.1173801c-0.1618176,0.0941982-0.3648605,0.0952492-0.5284691,0L8.3595076,20.9160366   C8.196764,20.8222733,8.09583,20.6482182,8.09583,20.4606895c0-0.1885185,0.099884-0.3625717,0.2626886-0.4573879   l15.7932281-9.1776085c0.1617546-0.0947533,0.3646736-0.0947533,0.5284691,0l15.9374905,9.2013435   c0.1628036,0.0937023,0.2637367,0.2678185,0.2637367,0.455286c0,0.1885185-0.0999451,0.3626347-0.2626877,0.4573879   L24.8244781,30.1173801z"/><path fill="rgb(120, 214, 204)" d="M2.5,30.0874653c20.9052773,12.0704021,21.5320225,12.4322948,21.5105743,12.4198704   c0.0005569,0.000309,0.000433,0.000309,0.001112,0.000679c-0.001482,0.5846519,0.0217571-8.6025963,0.0220051-8.7083549   C21.4826412,32.3267479,3.866415,22.1554966,2.5247238,21.3809032L2.5,30.0874653z"/><path fill="rgb(120, 214, 204)" d="M25.7443829,36.6959152c0-0.1874695,0.0999451-0.3626366,0.2616386-0.456337l2.7618809-1.6080894   c0.1647816-0.0958061,0.3646736-0.0958061,0.5294571-0.0020409c-0.1057568-0.0716362,3.1261826,1.8016129,3.2326813,1.8698502   c0.1472282,0.0942612,0.2492752,0.2494011,0.2492752,0.4438515v1.0775223l1.3834724-0.8024712   c-0.00037,0.1062508,0.0047607-1.2896461,0.0051308-1.3958359l-2.9492855-1.698761   c-0.1628036-0.0947533-0.2637386-0.2678185-0.2637386-0.456337s0.0999451-0.3626366,0.2616386-0.4573898l2.762867-1.6080875   c0.1637955-0.0947533,0.3657265-0.0937023,0.5295219-0.0009899c2.8324013,1.6369553,3.1539955,1.8134193,3.2475739,1.8783798   c0.1315308,0.0911064,0.2333298,0.3215332,0.2333298,0.4260521v1.0847511l1.3839073-0.808342l0.0046997-1.3879242   l-2.9492874-1.6987629c-0.1628036-0.0947533-0.2637405-0.2678185-0.2637405-0.456337   c0-0.1885166,0.0999451-0.3626328,0.2626915-0.4573879l2.762867-1.6070366   c0.1617546-0.0937653,0.3626366-0.0947533,0.5284691-0.0010509c1.3115273,0.7575321,3.1361961,1.8006248,3.2467117,1.8765259   c0.1308479,0.0894375,0.2351837,0.304657,0.2351837,0.4279671v1.0847492l1.3829193-0.8083401l0.0046959-1.3879852   l-2.9482956-1.6987019c-0.1627464-0.0947533-0.2636795-0.2678185-0.2636795-0.456337   c0-0.1885166,0.099884-0.3626347,0.2616386-0.456398l2.7618179-1.6080265   c0.1637955-0.0968552,0.3657265-0.0948162,0.5295181-0.0021019l1.5035095,0.8665028l0.0139084-5.0169888   c-15.3800354,8.935564-19.8844395,11.5526257-21.0182037,12.2113247c0.0154514-0.0090218-0.0055637,0.0032158-0.0456772,0.026516   c0.0134735-0.0078468,0.025032-0.0145836,0.0328827-0.0190964c-0.050869,0.0294838-0.0914173,0.053093-0.1289959,0.074913   c0.0161324-0.0093346,0.0291119-0.0169373,0.0422764-0.0245399c-0.0178623,0.0103836-0.0365906,0.0212631-0.0553188,0.0321426   c-0.0278759,0.0161934-0.0598927,0.0347977-0.0958652,0.055687c0.0051289-0.002964,0.0108776-0.0063019,0.0161934-0.0094566   c-0.0564938,0.0327606-0.0921574,0.0536537-0.1032219,0.0600166c0.0013599-0.533905-0.0215092,8.5947495-0.0218182,8.7003212   L28.9512272,40.2458c-0.00037,0.1062508,0.0047588-1.2895851,0.0051918-1.3958359l-2.9482956-1.6977119   C25.8453178,37.0574989,25.7443829,36.8844337,25.7443829,36.6959152z"/><path fill="rgb(120, 214, 204)" d="M47.3508873,28.7733402c0.1055069-0.0616226-1.5994377,0.9342461-1.7050056,0.9958076l-0.0066757,1.3776016   l-0.0077286,2.279459l1.7135963-0.9943848L47.3508873,28.7733402z"/><polygon fill="rgb(120, 214, 204)" points="29.0346699,35.6966476 27.3246574,36.6928253 29.4833431,37.9359283 31.1939106,36.9403076  "/><polygon fill="rgb(120, 214, 204)" points="47.8730507,33.3454247 46.1543236,34.3427773 48.7868347,35.8604393 50.5,34.8643227  "/><path fill="rgb(120, 214, 204)" d="M42.1403732,31.8009377c0.1082268-0.0631676-1.5983238,0.932579-1.7050056,0.9948196l-0.0066757,1.3771057   l-0.0077248,2.2819939l1.7135963-0.9943848L42.1403732,31.8009377z"/><polygon fill="rgb(120, 214, 204)" points="40.9438095,37.3714256 43.5763245,38.8890877 45.2894897,37.892971 42.6625366,36.374073  "/><polygon fill="rgb(120, 214, 204)" points="35.7324333,40.400013 38.3647614,41.916748 40.0768738,40.9205704 37.4510384,39.4027214  "/><path fill="rgb(120, 214, 204)" d="M31.7182999,37.8624992l-1.7049446,0.9885139c0.0008659-0.2265282-0.0139675,3.5517387-0.0144634,3.6600914   l1.7135983-0.9943848L31.7182999,37.8624992z"/><polygon fill="rgb(120, 214, 204)" points="30.5217972,43.4277344 33.1542511,44.9453964 34.8674126,43.9492188 32.2404633,42.4303207  "/><path fill="rgb(120, 214, 204)" d="M36.9288101,34.8287201c0.1082306-0.0631676-1.598259,0.9323921-1.7049408,0.9946327   c0.0008621-0.2264671-0.0138474,3.5517426-0.0143433,3.6600914l1.7134743-0.9943237L36.9288101,34.8287201z"/></g></svg>