<svg xmlns="http://www.w3.org/2000/svg" xmlns:xlink="http://www.w3.org/1999/xlink" version="1.1" x="0px" y="0px" viewBox="0 0 53 66.25" style="enable-background:new 0 0 53 53;" xml:space="preserve"><g><path fill="rgb(120, 214, 204)" d="M2.5,29.1792068C27.3336849,43.5181618,24.8362598,42.0761414,25.1993771,42.28582l0.0096817-3.4690094   L2.5096815,25.7112179L2.5,29.1792068z"/><path fill="rgb(120, 214, 204)" d="M36.99543,24.4230785l-10.7132626-6.1838818l-10.2628212,5.9637585   c-0.6394196-0.3691692,10.4535847,6.0352859,10.7127533,6.1849022L36.99543,24.4230785z"/><path fill="rgb(120, 214, 204)" d="M26.5547771,36.060154c-0.2496796-0.143692-0.3352833-0.4626694-0.191082-0.7123489   c0.1442032-0.2496796,0.4636898-0.3373222,0.7128601-0.1905708l1.7032299,0.9836807l0.884449-0.5139427l-1.1859112-0.6847687   c-0.2496796-0.143692-0.3352833-0.4626694-0.1910801-0.7123489c0.143692-0.2496796,0.4636879-0.3373222,0.7128582-0.1905708   l1.7035484,0.9836197l0.8845139-0.5140076l-1.1857853-0.6846428c-0.2496777-0.143692-0.3352814-0.4626694-0.1910801-0.7123489   c0.143692-0.2496796,0.4626713-0.3373222,0.7128582-0.1905708l1.7033577,0.9835548l0.8842583-0.5138779l-1.1858482-0.6847076   c-0.2496758-0.143692-0.3352814-0.4626694-0.1910782-0.7123489c0.1447105-0.2496777,0.4626694-0.3373203,0.7128563-0.1905708   l1.7034874,0.9835587l0.884449-0.5140076l-1.1856575-0.6845798c-0.2496796-0.1436939-0.3352814-0.4626713-0.191082-0.7123489   c0.1442032-0.2496796,0.4636917-0.3373222,0.7128601-0.1905727l1.7032928,0.9834938l0.8842583-0.5138798l-1.1857834-0.6846428   c-0.2496796-0.143692-0.3352814-0.4626694-0.1910782-0.7123489c0.1441994-0.2496796,0.4636879-0.3373222,0.7128563-0.1905708   l1.7034225,0.9835567l0.884449-0.5140076l-1.1855927-0.6845798c-0.2496796-0.143692-0.3352814-0.4626694-0.191082-0.7123489   c0.1442032-0.2496777,0.4631805-0.3373203,0.7128601-0.1905708l1.7032318,0.983429l0.8850212-0.5143261l-1.1859741-0.6841316   c-0.2496796-0.1436939-0.3352852-0.4626713-0.191082-0.7123508c0.143692-0.2496777,0.4611435-0.3373203,0.7128601-0.1905708   l1.703804,0.9829197l0.8843842-0.5139427l-1.1864204-0.6850243c-0.2496796-0.1436939-0.3352852-0.4626713-0.191082-0.7123508   c0.143692-0.2496777,0.4626694-0.3363018,0.7128601-0.1905708l1.7040596,0.9838753l0.884449-0.5140076l-1.1862297-0.6848965   c-0.2496796-0.1436939-0.3352852-0.4626713-0.191082-0.7123489c0.1442032-0.2506981,0.4636879-0.3363018,0.7128601-0.1905708   l1.7038651,0.9838104l0.8841934-0.5138798l-1.1862907-0.6849613c-0.2496796-0.143692-0.3352852-0.4626694-0.191082-0.7123489   s0.4636917-0.3373203,0.7128601-0.1905708l1.7039299,0.9838753l1.9648209-1.1418362L27.283432,10.71418l-1.9760303,1.1483955   l1.170433,0.6757889c0.2496796,0.143693,0.3352833,0.4626703,0.1910801,0.7123499   c-0.1450939,0.2504425-0.4656639,0.3349009-0.7128582,0.1905708l-1.6880703-0.9747028l-0.8844509,0.5140066l1.1702423,0.6757259   c0.2496796,0.143693,0.3352833,0.4626703,0.191082,0.7123489c-0.1450939,0.2504435-0.4656639,0.3349009-0.7128582,0.1905708   l-1.6878815-0.974575l-0.8841934,0.5138798l1.1703053,0.675725c0.2496796,0.143693,0.3352833,0.4626703,0.191082,0.7123489   c-0.1450958,0.2504435-0.4656639,0.3349018-0.7128601,0.1905718l-1.6879425-0.974576l-0.8844509,0.5140076l1.1701164,0.6755981   c0.2496777,0.143693,0.3352833,0.4626703,0.1910801,0.712348c-0.1450939,0.2504444-0.4656639,0.3349018-0.7128582,0.1905727   l-1.6877537-0.9745121l-0.8841934,0.5138798l1.1701775,0.6756611c0.2496796,0.143692,0.3352833,0.4626713,0.191082,0.7123489   c-0.1450939,0.2504444-0.4656639,0.3349018-0.7128601,0.1905708l-1.6878147-0.9745121l-0.88445,0.5140076l1.1699877,0.6755352   c0.2496796,0.143692,0.3352833,0.4626694,0.1910801,0.7123489c-0.1450939,0.2504425-0.4656639,0.3348999-0.7128582,0.1905708   l-1.6876259-0.9744473l-0.8843212,0.5139427l1.1696692,0.6755352c0.2496786,0.143692,0.3352833,0.4626694,0.191081,0.7123489   c-0.1450949,0.2504425-0.4656639,0.3348999-0.7128592,0.1905708l-1.6871796-0.9744492l-0.884449,0.5140076l1.1698599,0.6754704   c0.2496786,0.1436939,0.3352833,0.4626713,0.191081,0.7123489c-0.1450939,0.2504444-0.4656639,0.3349018-0.7128592,0.1905727   l-1.6874981-0.9743214l-0.884449,0.5140076l1.1696692,0.6753426c0.2496786,0.143692,0.3352833,0.4626694,0.191081,0.7123489   c-0.1450939,0.2504425-0.4656639,0.3349018-0.7128592,0.1905708l-1.6873064-0.9742565l-0.8841944,0.5138798l1.169733,0.6754074   c0.2496786,0.143692,0.3352823,0.4626694,0.1910801,0.7123489c-0.1450939,0.2504425-0.4656639,0.3348999-0.7128582,0.1905708   l-1.6873708-0.9742565l-0.8844495,0.5140076l1.1695418,0.6752777c0.2496791,0.1436939,0.3352833,0.4626713,0.191081,0.7123508   c-0.1450944,0.2504425-0.4656639,0.3348999-0.7128587,0.1905708l-1.6871796-0.9741306l-1.9988325,1.161644   c5.3343382,3.079586,19.4601765,11.2345943,22.6992493,13.1045742l2.0096607-1.1679497L26.5547771,36.060154z    M24.2751198,30.1739731l-1.3814507,0.8029213c-0.246685,0.1431198-0.5676384,0.0619755-0.7133694-0.1895523   c-0.1452198-0.2486591-0.0606346-0.568655,0.1885338-0.7133675l0.8636856-0.5019684l-1.4072475-0.8125401l-1.3815136,0.8029213   c-0.246685,0.1431198-0.5676365,0.0619736-0.7133675-0.1895523c-0.1452217-0.2486591-0.0606365-0.568655,0.1885319-0.7133675   l0.8637505-0.5019703l-1.4068012-0.8122826l-1.3825321,0.8026657c-0.2477055,0.143692-0.5684032,0.0606995-0.7133694-0.1895523   c-0.1447124-0.2486591-0.0596161-0.5686569,0.1895523-0.7133675l0.8640041-0.5016518l-1.4075012-0.8126659l-1.382597,0.8027306   c-0.2477045,0.143692-0.5684013,0.0606995-0.7133684-0.1895523c-0.1447115-0.2486591-0.059617-0.5686569,0.1895523-0.7133675   l0.8640671-0.5016518l-1.1662292-0.6733685c-0.1610174-0.0927372-0.2603798-0.2649651-0.2608891-0.4504414   c-0.0005093-0.1864948,0.0988522-0.3587227,0.2598696-0.4524784l11.3028107-6.5680847   c0.1610165-0.0947742,0.3607597-0.0947742,0.5227966,0l1.7044411,0.9839401l1.4053345-0.8168068   c0.2476406-0.145731,0.5681477-0.0611458,0.7133675,0.1895523c0.1452217,0.2486591,0.0606365,0.568655-0.1885319,0.7133675   l-0.8875065,0.5157909l1.4073734,0.8124752l1.4052067-0.816679c0.2481499-0.145731,0.5676384-0.0611458,0.7133713,0.1895523   c0.1452179,0.2486591,0.0606346,0.5686569-0.1885338,0.7133675l-0.8873158,0.515728l1.4073734,0.8124752l1.4050179-0.8166161   c0.2486572-0.145731,0.5681458-0.0611458,0.7133675,0.1895523c0.1452217,0.2486591,0.0606346,0.5686569-0.1885338,0.7133675   l-0.8871231,0.5156002l1.4073715,0.8124752l1.4048271-0.8164883c0.2481499-0.145731,0.5686569-0.0611458,0.7133675,0.1895523   c0.1452217,0.248661,0.0606384,0.5686569-0.1885338,0.7133694l-0.8869324,0.5155354l1.6578789,0.9570599   c0.1610184,0.0927372,0.2603798,0.2649651,0.260891,0.4504414c0.0005112,0.1864948-0.0988541,0.3587227-0.2593613,0.4524784   l-11.303318,6.5691032c-0.1645851,0.0945854-0.3637543,0.092865-0.5233078,0L24.2751198,30.1739731z"/><polygon fill="rgb(120, 214, 204)" points="26.2528057,38.8173866 26.2429333,42.279705 50.4903183,28.1886444 50.5,24.7263889  "/></g></svg>