<svg xmlns="http://www.w3.org/2000/svg" xmlns:xlink="http://www.w3.org/1999/xlink" version="1.1" x="0px" y="0px" viewBox="0 0 53 66.25" style="enable-background:new 0 0 53 53;" xml:space="preserve"><g><path fill="rgb(120, 214, 204)" d="M15.6831055,25.9873047c-0.9784546-0.5632935-2.6348267-0.565979-3.6162109,0.0048828   c-0.8014526,0.4646606-0.8079224,1.0543213-0.0009766,1.5224609c0.9863281,0.5693359,2.6474609,0.5673828,3.6279297-0.0029297   C16.4904175,27.0477295,16.4829102,26.4501343,15.6831055,25.9873047z"/><path fill="rgb(120, 214, 204)" d="M40.9487305,11.3046875c-0.9824219-0.5654297-2.6367188-0.5654297-3.6152344,0.0039063   c-0.8030396,0.4658813-0.8001099,1.0527954,0.0048828,1.5195313c0.9853516,0.5673828,2.6435547,0.5693359,3.6230469,0   C41.7608032,12.3637085,41.7506104,11.7683716,40.9487305,11.3046875z"/><path fill="rgb(120, 214, 204)" d="M14.472168,21.65625l8.8300781,5.0976563L38.5317383,17.90625l-8.8300781-5.0957031L14.472168,21.65625z    M23.8618164,24.7255859c-0.137146,0.2392578-0.4442139,0.3209229-0.6826172,0.1826172l-5.0224609-2.8994141   c-0.2392578-0.1376953-0.3212891-0.4433594-0.1826172-0.6826172c0.1367188-0.2382813,0.4443359-0.3203125,0.6826172-0.1826172   l5.0224609,2.8994141C23.918457,24.1806641,24.0004883,24.4863281,23.8618164,24.7255859z M25.7231445,23.6445313   c-0.137146,0.2392578-0.4442139,0.3209229-0.6826172,0.1826172l-5.0224609-2.8994141   c-0.2392578-0.1376953-0.3212891-0.4433594-0.1826172-0.6826172c0.1376953-0.2382813,0.4443359-0.3212891,0.6826172-0.1826172   l5.0224609,2.8994141C25.7797852,23.0996094,25.8618164,23.4052734,25.7231445,23.6445313z M27.5844727,22.5625   c-0.137207,0.2393799-0.4440308,0.3210449-0.6826172,0.1826172l-5.0224609-2.8984375   c-0.2392578-0.1376953-0.3212891-0.4433594-0.1826172-0.6826172c0.1367188-0.2392578,0.4443359-0.3203125,0.6826172-0.1826172   l5.0224609,2.8984375C27.6411133,22.0175781,27.7231445,22.3232422,27.5844727,22.5625z M29.4458008,21.4814453   c-0.137207,0.2393799-0.4440308,0.3210449-0.6826172,0.1826172l-5.0224609-2.8984375   c-0.2392578-0.1376953-0.3212891-0.4433594-0.1826172-0.6826172c0.1376953-0.2392578,0.4443359-0.3212891,0.6826172-0.1826172   l5.0224609,2.8984375C29.5024414,20.9365234,29.5844727,21.2421875,29.4458008,21.4814453z M31.3071289,20.4003906   c-0.137146,0.2392578-0.4442139,0.3209229-0.6826172,0.1826172l-5.0224609-2.8994141   c-0.2392578-0.1376953-0.3212891-0.4433594-0.1826172-0.6826172c0.1367188-0.2382813,0.4443359-0.3212891,0.6826172-0.1826172   l5.0224609,2.8994141C31.3637695,19.8554688,31.4458008,20.1611328,31.3071289,20.4003906z M33.168457,19.3193359   c-0.137146,0.2392578-0.4442139,0.3209229-0.6826172,0.1826172l-5.0214844-2.8994141   c-0.2392578-0.1376953-0.3212891-0.4433594-0.1826172-0.6826172c0.1376953-0.2392578,0.4443359-0.3203125,0.6826172-0.1826172   l5.0214844,2.8994141C33.2250977,18.7744141,33.3071289,19.0800781,33.168457,19.3193359z M34.847168,17.5546875   c0.2392578,0.1376953,0.3212891,0.4433594,0.1826172,0.6826172c-0.137146,0.2392578-0.4442139,0.3209229-0.6826172,0.1826172   l-5.0214844-2.8984375c-0.2392578-0.1376953-0.3212891-0.4433594-0.1826172-0.6826172   c0.1376953-0.2392578,0.4443359-0.3203125,0.6826172-0.1826172L34.847168,17.5546875z"/><polygon fill="rgb(120, 214, 204)" points="5.2192383,34.7568359 11.5620117,38.4189453 11.5766602,32.3369141 5.2338867,28.6748047  "/><polygon fill="rgb(120, 214, 204)" points="12.5647583,37.3470459 12.5611572,38.8349609 20.6811523,39.7041016 20.6967773,33.4746094 12.5766602,32.6054688     "/><path fill="rgb(120, 214, 204)" d="M33.7905273,29.6308594c-0.1471558,0.0854492-0.2967529,0.329834-0.2998047,0.5025635   c-0.0003052-0.1027222,0.0101318,3.9077759,0.0126953,4.8773193l0.8164063-0.46875   c0.6317139-0.3653564,1.2880249,0.0183105,1.2900391,0.7392578l0.0507813,6.3154297   c0,0.0908203,0.015625,0.1386719,0.0253906,0.1591797c0.0107422-0.0087891,0.0615234-0.0195313,0.1416016-0.0654297   c0.3525391-0.2041016,0.6621094-0.7392578,0.6611328-1.1445313l-0.0507813-6.3154297   c-0.0019531-0.5205078,0.3369141-1.1064453,0.7861328-1.3662109l1.015625-0.5849609   c0.1474609-0.0849609,0.2958984-0.3378906,0.2958984-0.5019531c0.0007935,0.2598267-0.0114136-3.7974854-0.0146484-4.8769531   L33.7905273,29.6308594z"/><polygon fill="rgb(120, 214, 204)" points="3.5024414,29.6865234 4.2258911,31.911499 4.2356567,27.8881836 3.512207,25.6635742  "/><path fill="rgb(120, 214, 204)" d="M42.2905273,24.6914063c-0.1513672,0.0878906-0.3007813,0.3388062-0.3007813,0.5067749   c-0.0006714-0.2094727,0.0103149,3.1213989,0.0107422,3.2481079c0,0.0030518-0.0021973,0.0054932-0.0022583,0.0085449   l0.0042114,1.6174316l0.8164063-0.4697266c0.6253052-0.3638306,1.2879639,0.0144043,1.2900391,0.7392578l0.0507813,6.3154297   c0,0.0908203,0.015625,0.1386719,0.0253906,0.1591797c0.0107422-0.0087891,0.0615234-0.0195313,0.1416016-0.0654297   c0.3535156-0.2041016,0.6611328-0.7382813,0.6601563-1.1425781l-0.0507813-6.3164063   c-0.0019531-0.5205078,0.3369141-1.1074219,0.7871094-1.3671875l1.0146484-0.5849609   c0.1474609-0.0859375,0.296875-0.3378906,0.296875-0.5009766c0.0009155,0.3249512-0.0133667-4.7781982-0.0136719-4.8789063   L42.2905273,24.6914063z"/><path fill="rgb(120, 214, 204)" d="M21.6987305,33.3164063l-0.0150757,5.520813l-0.0013428,0.5513306l2.3171997-1.3475342l-0.0097656-2.9707031   c0-0.5213623,0.3833618-1.1248779,0.7988281-1.3642578c-0.3284912,0.1898804,4.8312378-2.7926025,4.9316406-2.8505859   c0.6773682-0.3772583,1.3007813,0.0581665,1.3027344,0.734375l0.0067749,2.3616333l1.4689331-0.8504028   c0.0006104,0.1939087-0.008606-2.8592529-0.0089111-2.9604492c0-0.546814,0.3565063-1.119873,0.7978401-1.3740234   c-0.3285408,0.1898193,4.8322258-2.7926025,4.9326286-2.8505859c0.6676025-0.3689575,1.2998047,0.0395508,1.3017578,0.7353516   l0.0062866,2.3605347l1.4694214-0.850647c0.0004272,0.1605225-0.0074463-2.7766724-0.0079346-2.9649658   c-0.0020142-0.5320435,0.4019775-1.1416626,0.7958984-1.3681641c-0.3284912,0.1898804,4.8341675-2.7945557,4.9345703-2.8525391   c0.6611938-0.3654175,1.2796021,0.0302124,1.2944946,0.7095337c0.0167847,3.2803955,0.0112915,2.1489868,0.0125732,2.3937378   l1.4536743-0.8483887l0.0166016-6.0722656L21.6987305,33.3164063z"/><path fill="rgb(120, 214, 204)" d="M25.2905273,34.5712891c-0.1531982,0.0886841-0.2988281,0.3413086-0.2988281,0.5009766   c-0.0006714-0.2633057,0.0101318,3.8891602,0.0126953,4.8779297l0.8164063-0.4697266   c0.6273804-0.3650513,1.2879639,0.0162354,1.2900391,0.7392578l0.0507813,6.3154297   c0,0.0908203,0.015625,0.1386719,0.0253906,0.1591797c0.0107422-0.0087891,0.0615234-0.0195313,0.1416016-0.0654297   c0.3535156-0.2041016,0.6621094-0.7382813,0.6611328-1.1425781l-0.0507813-6.3164063   c-0.0019531-0.5185547,0.3359375-1.1044922,0.7851563-1.3662109l1.0166016-0.5859375   c0.1474609-0.0859375,0.2968636-0.3378906,0.2968636-0.5009766c0.0011101,0.3249512-0.0162239-4.7762451-0.0165901-4.8769531   L25.2905273,34.5712891z"/><path fill="rgb(120, 214, 204)" d="M47.8637695,11.3476563l-7.0849609-4.0908203l-8.8457031-0.9511719   C29.2253418,7.8792114,6.4534302,21.112915,3.6196289,22.7597656c-0.1019287-0.3134155,1.499939,4.612915,1.5324707,4.7130127   L12.2358398,31.5625l8.8525391,0.9482422l28.3134766-16.4541016L47.8637695,11.3476563z M16.1967773,28.3759766   c-1.277771,0.7435913-3.3148804,0.7657471-4.6308594,0.0039063c-1.4781494-0.8516235-1.4746704-2.3969727-0.0009766-3.2529297   c1.2919922-0.7529297,3.3203125-0.7529297,4.6181641-0.0058594C17.6546021,25.9744873,17.6572266,27.5267944,16.1967773,28.3759766   z M39.7807617,18.3378906l-16.2265625,9.4267578c-0.1533813,0.0892944-0.3458862,0.090332-0.5009766,0l-9.8291016-5.6748047   c-0.1542969-0.0888672-0.25-0.2539063-0.25-0.4316406c0-0.1787109,0.0947266-0.34375,0.2490234-0.4335938l16.2265625-9.4248047   c0.1533203-0.0898438,0.3457031-0.0898438,0.5009766,0l9.8291016,5.6728516c0.1542969,0.0888672,0.25,0.2539063,0.25,0.4316406   C40.0297852,18.0830078,39.9350586,18.2480469,39.7807617,18.3378906z M41.4633789,13.6933594   c-1.2987671,0.7533569-3.3278198,0.7489014-4.625,0.0009766c0-0.0009766,0-0.0009766,0-0.0009766   c-1.4831543-0.854187-1.4755859-2.3966064-0.0068359-3.25c1.2919922-0.75,3.3193359-0.7539063,4.6171875-0.0039063   C42.8917236,11.2719727,42.9610596,12.8224487,41.4633789,13.6933594z"/></g></svg>