<svg xmlns="http://www.w3.org/2000/svg" xmlns:xlink="http://www.w3.org/1999/xlink" version="1.1" x="0px" y="0px" viewBox="0 0 53 66.25" style="enable-background:new 0 0 53 53;" xml:space="preserve"><g><path fill="rgb(120, 214, 204)" d="M3.0988081,22.2248936c-0.1147461-0.0667725-0.1765747-0.1027222-0.2012939-0.1170654   C2.9348066,22.1294956,3.0290449,22.1843052,3.0988081,22.2248936z"/><path fill="rgb(120, 214, 204)" d="M44.1201706,16.6922398l-13.2202148-7.682312L8.8693161,21.7296543l13.2202148,7.682312L44.1201706,16.6922398z    M29.8695564,21.402071c-0.6394596,0.371542-1.6477108,0.3692741-2.2982254-0.0056   c-0.7940044-0.4585629-0.7940521-1.3424854-0.0064182-1.7986832c0.645155-0.3752594,1.6546612-0.3788795,2.2982254-0.0072403   C30.6639481,20.053215,30.6667461,20.938343,29.8695564,21.402071z M27.9822521,13.2274008   c1.8070107-1.041585,4.5447788-0.7476835,7.1444683,0.7636623c0.0008545,0.0004807,0.0017624,0.0009079,0.0026703,0.0013361   c2.4220657,1.4269695,3.489994,3.3433113,1.3724136,4.5657253c-2.1847534,1.2603016-5.0142746,0.4644699-7.1969967-0.8046474   C26.8683147,16.338316,25.8212776,14.4747705,27.9822521,13.2274008z M23.0963478,16.8672142   c0.6533051-0.3804836,1.6776962-0.3837624,2.3302174-0.0073414c0.8119583,0.4691086,0.8147964,1.3665581,0.0065098,1.8367424   c-0.6497326,0.3774967-1.6728516,0.3736305-2.3293877-0.0057259   C22.2970638,18.2242279,22.2989235,17.3300571,23.0963478,16.8672142z M16.504406,19.8285084   c1.8117447-1.0464554,4.5652142-0.7524014,7.1808147,0.7675457c0.0008583,0.0004845,0.0017719,0.0009136,0.0026836,0.0013428   c2.429554,1.4319744,3.5118332,3.35742,1.3793945,4.5893841c-2.192915,1.265049-5.0337677,0.4703255-7.2345238-0.8091698   C15.3901176,22.9580975,14.3289461,21.0842113,16.504406,19.8285084z"/><path fill="rgb(120, 214, 204)" d="M50.440361,18.0946445l-7.5431519,4.3550415L23.8005295,33.4819756   c-0.9674072,0.5466919-2.505188,0.5268555-3.4169312-0.0004883C7.5145793,26.0015049,3.7609785,23.8198032,2.8219526,23.2739658   c0.0221558,0.0128784,0.0019531,0.0011597-0.0955811-0.055542c0.0285034,0.0165405,0.0531006,0.0309448,0.0725098,0.0421753   c-0.0324097-0.0188599-0.055481-0.0322876-0.0809937-0.0471191c-0.0435791-0.0253296-0.0965576-0.0560913-0.1728516-0.1004639   l0.0162964,6.1143188c0,0.0844116,0.1078491,0.2365112,0.3448486,0.3738403   C2.2321088,29.2091465,20.822197,40.0195732,20.9268112,40.0803642c0.6205444,0.3641968,1.7303467,0.3621826,2.3793335-0.0030518   l21.5027466-12.4309711l2.6895752-1.5557251c0.0008545-0.0004883,0.0018921-0.0002441,0.0027466-0.0007935l2.6126099-1.5103149   c0.2217407-0.1170044,0.3428345-0.2558594,0.343811-0.3809814L50.440361,18.0946445z"/><path fill="rgb(120, 214, 204)" d="M35.8946457,41.7812309c0,0.0411987,0.0651245,0.142395,0.2451782,0.2492065   c0.491333,0.281311,1.3641357,0.2802734,1.8615723-0.0040283c0.171936-0.1022339,0.2369995-0.2034912,0.2369995-0.2456665   L38.247551,29.881876l-2.3427124,1.3554688L35.8946457,41.7812309z"/><path fill="rgb(120, 214, 204)" d="M44.8942795,26.0392246l-0.0101318,10.5443745c0,0.0396729,0.0661011,0.1434326,0.2451172,0.2492065   c0.5025635,0.2909546,1.3590698,0.2904053,1.869751-0.0025635c0.1851196-0.1144409,0.2288818-0.2176514,0.2288818-0.2471924   l0.0091553-11.8987446l-1.2244263,0.7078857L44.8942795,26.0392246z"/><path fill="rgb(120, 214, 204)" d="M2.6514204,23.1748447C2.470329,23.0696201,2.546623,23.1139317,2.6514204,23.1748447L2.6514204,23.1748447z"/><path fill="rgb(120, 214, 204)" d="M2.6514204,23.1748447c0.0181885,0.0105591,0.0427856,0.0249023,0.0664673,0.0386353   c0.0030518,0.00177,0.0056152,0.0032959,0.0084839,0.0049438C2.7016523,23.2040806,2.6762617,23.189249,2.6514204,23.1748447z"/><path fill="rgb(120, 214, 204)" d="M5.6863322,37.0734062c0,0.0442505,0.0620728,0.1459351,0.2339478,0.2426147   c0.5157471,0.2969971,1.373291,0.2960205,1.8809204,0.0030518c0.1688843-0.0976563,0.2288823-0.1943359,0.2288823-0.2467041   v-6.0450459c0.1488037,0.0866699-2.228394-1.2979126-2.3356328-1.3603516L5.6863322,37.0734062z"/><path fill="rgb(120, 214, 204)" d="M2.8848188,22.1004429c-0.0071411-0.0042114-0.0021362-0.0012207,0.0126953,0.0073853   c-0.0039673-0.0023804-0.0081177-0.0047607-0.0106201-0.0061646c0.1450195,0.0842896,0.2206421,0.1282959,0.2578735,0.1499023   c-0.0126953-0.0073242-0.0280151-0.0162964-0.0459595-0.0266724c0.0197754,0.0114746,0.0393677,0.0228882,0.062439,0.0363159   c0.0022583,0.0013428,0.0040894,0.0024414,0.0057373,0.0033569c0.9530637,0.5541382,4.7496948,2.7617188,17.7384644,10.3140888   c0.6296997,0.3651733,1.734436,0.3641968,2.3661499-0.0010376l19.3920288-11.1960468l7.428833-4.291626   c0.0769043-0.0421753,0.1262207-0.0894775,0.1785889-0.1360474c0.0228882-0.0204468,0.0582275-0.0393066,0.076416-0.0598755   c0.057251-0.0664063,0.0888062-0.133667,0.0888062-0.1967163c0-0.0014038,0.0007935-0.0025635,0.0007935-0.0039673   c-0.0045776-0.1152954-0.1276245-0.2581787-0.3293457-0.3759766L32.0840378,5.8432407   c-0.6398315-0.3707886-1.722229-0.369812-2.3661499,0.0009766L2.8898847,21.3329258   C2.4575117,21.5821934,2.4083784,21.8254795,2.8848188,22.1004429z M7.5703044,21.2769566L30.6405563,7.9570713   c0.1617432-0.0925903,0.3621216-0.0925903,0.5218506,0.0010376l14.2578125,8.2855225   c0.1607056,0.0930786,0.2593994,0.2649536,0.2593994,0.4506226c0,0.1861572-0.0996704,0.3575439-0.260437,0.4506226   L22.3489304,30.4648228c-0.1624756,0.0935669-0.362915,0.0925293-0.5218506-0.0010376L7.5692668,22.1782627   c-0.1607056-0.0930786-0.2593994-0.2650146-0.2593994-0.4506226C7.3098674,21.5414829,7.4095378,21.3700352,7.5703044,21.2769566z"/><path fill="rgb(120, 214, 204)" d="M26.9052048,46.9687309c0,0.0513306,0.0610352,0.1459351,0.2339478,0.2435913   c0.5045776,0.2950439,1.3723145,0.2955322,1.8666992,0.0045776c0.1790161-0.100708,0.243103-0.1988525,0.243103-0.2380371   l0.0091553-11.899353l-2.3427124,1.3555298L26.9052048,46.9687309z"/></g></svg>