<svg width="110%" height="447" viewBox="0 0 2565 447" fill="none" xmlns="http://www.w3.org/2000/svg">
<path d="M0 32H146.718L181.602 0L248.805 67H638.172L647.919 80L657.666 67H1356.86L1399.93 109.5L1480 31H1538.49L1580.55 67H2565V0V444H0V32Z" fill="#FFFC01"/>
<rect x="84.0981" y="113" width="5.12795" height="25" fill="black"/>
<rect x="101.533" y="126" width="5" height="10.2559" transform="rotate(-90 101.533 126)" fill="black"/>
<rect x="58.4585" y="83" width="5.12795" height="52" fill="black"/>
<path d="M1973.43 106H2008.35L2126.46 222H2091.54L1973.43 106Z" fill="black"/>
<path d="M1973.43 106H2008.35L2126.46 222H2091.54L1973.43 106Z" fill="black"/>
<path d="M1973.43 106H2008.35L2126.46 222H2091.54L1973.43 106Z" fill="black"/>
<path d="M1973.43 106H2008.35L2126.46 222H2091.54L1973.43 106Z" fill="black"/>
<path d="M1922.08 106H1957L2075.1 222H2040.19L1922.08 106Z" fill="black"/>
<path d="M1870.72 106H1905.64L2023.75 222H1988.83L1870.72 106Z" fill="black"/>
<path d="M2023.75 106H2058.67L2176.78 222H2141.86L2023.75 106Z" fill="black"/>
<path d="M2074.08 106H2109L2227.11 222H2192.19L2074.08 106Z" fill="black"/>
<path d="M2124.4 106H2159.32L2277.43 222H2242.51L2124.4 106Z" fill="black"/>
<path d="M2174.73 106H2209.65L2327.76 222H2292.84L2174.73 106Z" fill="black"/>
<path d="M2225.05 106H2259.97L2378.08 222H2343.16L2225.05 106Z" fill="black"/>
<path d="M2275.38 106H2310.3L2428.4 222H2393.49L2275.38 106Z" fill="black"/>
<path d="M2325.7 106H2360.62L2478.73 222H2443.81L2325.7 106Z" fill="black"/>
<path d="M2376.03 106H2410.94L2529.05 222H2494.13L2376.03 106Z" fill="black"/>
<path d="M1972.4 222H1937.48L1835.81 122.139V106H1854.29L1972.4 222Z" fill="black"/>
<path d="M1921.05 222H1886.13L1835.81 172.573V138.278L1921.05 222Z" fill="black"/>
<path d="M1869.7 222H1835.81V188.713L1869.7 222Z" fill="black"/>
<path d="M2565 207.877V222H2544.46L2426.35 106H2461.27L2565 207.877Z" fill="black"/>
<path d="M2565 158.452V192.747L2476.68 106H2511.59L2565 158.452Z" fill="black"/>
<path d="M2565 109.025V143.321L2527 106H2561.92L2565 109.025Z" fill="black"/>
<path d="M648.173 80L666.825 104.75H629.521L648.173 80Z" fill="black"/>
<path d="M648.173 79.75L629.521 67H666.633L648.173 79.75Z" fill="black"/>
<path d="M0 259L0 256L2565 256V259L0 259Z" fill="#BABABA"/>
<path d="M1351.73 67L1356.86 67L1741.45 444L1736.32 444L1351.73 67Z" fill="#BABABA"/>
<rect x="630.994" y="256" width="3.07677" height="188" fill="#BABABA"/>
<path d="M0 407H2565V420H0V407Z" fill="black"/>
<rect x="1051.23" y="86" width="22.563" height="22" fill="black"/>
<rect x="1146.61" y="86" width="22.563" height="22" fill="black"/>
<rect x="87.1753" y="385" width="22.563" height="22" fill="black"/>
<rect x="213.323" y="385" width="22.563" height="22" fill="black"/>
<rect x="1086.1" y="86" width="5.12795" height="22" fill="black"/>
<rect x="26.6655" y="385" width="5.12795" height="22" fill="black"/>
<rect x="1103.53" y="86" width="5.12795" height="22" fill="black"/>
<rect x="44.1006" y="385" width="5.12795" height="22" fill="black"/>
<rect x="1129.17" y="86" width="5.12795" height="22" fill="black"/>
<rect x="69.7402" y="385" width="5.12795" height="22" fill="black"/>
<rect x="1177.38" y="86" width="5.12795" height="22" fill="black"/>
<rect x="117.943" y="385" width="5.12795" height="22" fill="black"/>
<rect x="1187.63" y="86" width="5.12795" height="22" fill="black"/>
<rect x="128.199" y="385" width="5.12795" height="22" fill="black"/>
<rect x="1197.89" y="86" width="5.12795" height="22" fill="black"/>
<rect x="138.455" y="385" width="5.12795" height="22" fill="black"/>
<rect x="1232.76" y="86" width="5.12795" height="22" fill="black"/>
<rect x="173.325" y="385" width="5.12795" height="22" fill="black"/>
<rect x="1252.25" y="86" width="5.12795" height="22" fill="black"/>
<rect x="192.811" y="385" width="5.12795" height="22" fill="black"/>
<path d="M2468.59 336H2565V344H2468.59V336Z" fill="black"/>
<path d="M805.088 67H818.421L755.86 130L742.527 130L805.088 67Z" fill="black"/>
<path d="M833.804 67H847.137L784.576 130L771.243 130L833.804 67Z" fill="black"/>
<path d="M825.208 118H811.876L862.521 67H875.854L825.208 118Z" fill="black"/>
<path d="M383.041 98H369.709L400.493 67H413.825L383.041 98Z" fill="black"/>
</svg>
