<svg xmlns="http://www.w3.org/2000/svg" version="1.1" viewBox="-5.0 -10.0 110.0 135.0">
 <path fill="#fff" d="m82.996 77.062-3.5352-5.1797v-32.227c0-15.152-12.328-27.48-27.48-27.48h-3.9609c-15.156 0-27.484 12.328-27.484 27.48v32.227l-3.5352 5.1797c-0.99219 1.4531-1.0938 3.3203-0.27344 4.875 0.82031 1.5547 2.4258 2.5234 4.1836 2.5234h58.18c1.7578 0 3.3594-0.96875 4.1836-2.5234 0.82031-1.5586 0.71484-3.4258-0.27734-4.875z"/>
 <path fill="#fff" d="m60.77 88.617h-21.535c-0.55469 0-1 0.44922-1 1 0 0.55078 0.44531 1 1 1h21.535c0.55469 0 1-0.44922 1-1 0-0.55469-0.44922-1-1-1z"/>
 <path fill="#fff" d="m55.77 94h-11.539c-0.55469 0-1 0.44922-1 1s0.44531 1 1 1h11.539c0.55469 0 1-0.44922 1-1s-0.44922-1-1-1z"/>
 <path fill="#fff" d="m45.387 6h9.2266c0.55469 0 1-0.44922 1-1s-0.44531-1-1-1h-9.2266c-0.55469 0-1 0.44922-1 1s0.44922 1 1 1z"/>
</svg>