<svg xmlns="http://www.w3.org/2000/svg" xmlns:xlink="http://www.w3.org/1999/xlink" version="1.1" x="0px" y="0px" viewBox="0 -10 69 86.25" style="enable-background:new 0 0 69 69;" xml:space="preserve"><g><polygon fill="rgb(120, 214, 204)" points="26.62915,23.30795 22.34106,27.59702 22.34106,41.3978 26.62915,45.68686 42.36646,45.68686 46.65552,41.3978    46.65552,27.59702 42.36646,23.30795  "/><path fill="rgb(120, 214, 204)" d="M62.03998,36.60001c-2.08002,0-3.79999,1.51001-4.15002,3.47998h-4.73999v-3.88h3.91998c0.41003,0,0.75-0.33997,0.75-0.75   c0-0.40997-0.33997-0.75-0.75-0.75h-3.91998v-3.87994h4.73999c0.35004,1.96997,2.07001,3.47998,4.15002,3.47998   c2.32001,0,4.21002-1.90002,4.21002-4.22998c0-2.33002-1.89001-4.22003-4.21002-4.22003c-2.08002,0-3.79999,1.5-4.15002,3.47003   h-4.73999v-3.88h3.91998c0.41003,0,0.75-0.33002,0.75-0.75c0-0.41003-0.33997-0.75-0.75-0.75h-4.66998   c-0.06,0-0.10999,0.01996-0.16998,0.03998L45.27997,17.03c-0.14001-0.14001-0.33002-0.21997-0.52997-0.21997h-1.44v-3.92004   c0-0.40997-0.33002-0.75-0.75-0.75c-0.41003,0-0.75,0.34003-0.75,0.75v3.92004h-3.87006v-4.73999   c1.97003-0.35004,3.47003-2.07001,3.47003-4.14001c0-2.33002-1.90002-4.21002-4.22003-4.21002   c-2.32996,0-4.22998,1.88-4.22998,4.21002c0,2.07001,1.51001,3.78998,3.47998,4.14996v4.73004H32.56v-3.92004   c0-0.40997-0.34003-0.75-0.75-0.75c-0.42004,0-0.75,0.34003-0.75,0.75v3.92004h-3.88v-4.73004   c1.96997-0.35999,3.46997-2.07996,3.46997-4.14996c0-2.33002-1.89001-4.21002-4.21997-4.21002   c-2.33002,0-4.22003,1.88-4.22003,4.21002c0,2.07001,1.5,3.78998,3.47003,4.14001v4.73999H24.25   c-0.20001,0-0.39001,0.07996-0.53003,0.21997l-6.96002,6.95001c-0.04999-0.02002-0.10999-0.03998-0.16998-0.03998h-4.65997   c-0.42004,0-0.75,0.33997-0.75,0.75c0,0.41998,0.32996,0.75,0.75,0.75h3.90997v3.88h-4.72998   c-0.35999-1.97003-2.08002-3.47003-4.15002-3.47003c-2.32001,0-4.20996,1.89001-4.20996,4.22003   c0,2.32996,1.88995,4.22998,4.20996,4.22998c2.07001,0,3.79004-1.51001,4.15002-3.47998h4.72998v3.87994h-3.90997   c-0.42004,0-0.75,0.34003-0.75,0.75c0,0.41003,0.32996,0.75,0.75,0.75h3.90997v3.88h-4.72998   c-0.35999-1.96997-2.08002-3.47998-4.15002-3.47998c-2.32001,0-4.20996,1.90002-4.20996,4.22998   c0,2.33002,1.88995,4.22003,4.20996,4.22003c2.07001,0,3.79004-1.5,4.15002-3.47003h4.72998V43.78   c0,0.20001,0.08002,0.39001,0.22003,0.53003L23.71997,51.97c0.14001,0.14001,0.33002,0.22003,0.53003,0.22003h1.42999v4.72998   c-1.97003,0.35999-3.47003,2.08002-3.47003,4.15002c0,2.31995,1.89001,4.20996,4.22003,4.20996   c2.32996,0,4.21997-1.89001,4.21997-4.20996c0-2.08002-1.5-3.79004-3.46997-4.15002v-4.72998h3.88v3.90997   c0,0.40997,0.32996,0.75,0.75,0.75c0.40997,0,0.75-0.34003,0.75-0.75v-3.90997h3.87994v4.72998   c-1.96997,0.34998-3.47998,2.07001-3.47998,4.15002c0,2.31995,1.90002,4.20996,4.22998,4.20996   c2.32001,0,4.22003-1.89001,4.22003-4.20996c0-2.07001-1.5-3.79004-3.47003-4.15002v-4.72998H41.81v3.90997   c0,0.40997,0.33997,0.75,0.75,0.75c0.41998,0,0.75-0.34003,0.75-0.75v-3.90997h1.44c0.19995,0,0.38995-0.08002,0.52997-0.22003   l7.65002-7.65997c0.14996-0.14001,0.21997-0.33002,0.21997-0.53003v-2.20001h4.73999   c0.36005,1.97003,2.07001,3.47003,4.15002,3.47003c2.32001,0,4.21002-1.89001,4.21002-4.22003   C66.25,38.50003,64.35999,36.60001,62.03998,36.60001z M48.15997,41.70999c0,0.20001-0.08002,0.39001-0.22003,0.53003   L43.20996,46.97c-0.14001,0.14001-0.33002,0.22003-0.52997,0.22003H26.31995c-0.19995,0-0.38995-0.08002-0.52997-0.22003   L21.06,42.24002c-0.14001-0.14001-0.22003-0.33002-0.22003-0.53003V27.29001c0-0.20001,0.08002-0.39001,0.22003-0.53003   L25.78998,22.03c0.14001-0.14001,0.33002-0.21997,0.52997-0.21997h16.36005c0.19995,0,0.38995,0.07996,0.52997,0.21997   l4.72998,4.72998c0.14001,0.14001,0.22003,0.33002,0.22003,0.53003V41.70999z"/></g></svg>