<svg xmlns="http://www.w3.org/2000/svg" data-name="Layer 1" viewBox="0 0 93 116.25" x="0px" y="0px"><defs><style>.cls-1{fill-rule:evenodd;}</style></defs><title>a</title><path fill="rgb(120, 214, 204)" class="cls-1" d="M57.472,46.5A17.228,17.228,0,1,0,40.244,63.728,17.248,17.248,0,0,0,57.472,46.5ZM71.2,22.265a6.293,6.293,0,1,1,2.11,0V36.981a2.308,2.308,0,0,1-2.3,2.3H58.222a19.1,19.1,0,0,0-1-2.109H71.007a.2.2,0,0,0,.195-.2V22.265ZM83.233,40.209a6.3,6.3,0,0,0-6.2,5.236H59.592c.019.35.03.7.03,1.055s-.011.7-.03,1.055H77.03a6.292,6.292,0,1,0,6.2-7.346ZM73.312,70.737a6.293,6.293,0,1,1-2.11,0V56.019a.2.2,0,0,0-.195-.2H57.221a19.009,19.009,0,0,0,1-2.109H71.007a2.307,2.307,0,0,1,2.3,2.3V70.737ZM57.02,72.916l-.668-.522a1.054,1.054,0,0,0-1.178-.081,29.689,29.689,0,0,1-7.269,3.013,1.056,1.056,0,0,0-.776.89l-.815,6.632a.453.453,0,0,1-.454.4H34.589a.452.452,0,0,1-.454-.4l-.815-6.632a1.056,1.056,0,0,0-.776-.89,29.625,29.625,0,0,1-7.269-3.013,1.056,1.056,0,0,0-1.179.081l-5.267,4.113a.452.452,0,0,1-.606-.036L10.254,68.5a.453.453,0,0,1-.038-.605l4.115-5.266a1.056,1.056,0,0,0,.082-1.18A29.634,29.634,0,0,1,11.4,54.181a1.056,1.056,0,0,0-.891-.776l-6.632-.814a.455.455,0,0,1-.4-.456V40.864a.452.452,0,0,1,.4-.453l6.632-.816a1.05,1.05,0,0,0,.89-.775,29.683,29.683,0,0,1,3.014-7.269,1.054,1.054,0,0,0-.082-1.179L10.216,25.1a.453.453,0,0,1,.038-.605l7.969-7.97a.455.455,0,0,1,.606-.037L24.1,20.607a1.054,1.054,0,0,0,1.179.081,29.712,29.712,0,0,1,7.269-3.013,1.054,1.054,0,0,0,.776-.891l.815-6.632a.452.452,0,0,1,.454-.4H45.86a.453.453,0,0,1,.454.4l.815,6.632a1.054,1.054,0,0,0,.776.891,29.651,29.651,0,0,1,7.269,3.013,1.052,1.052,0,0,0,1.178-.081l.668-.522V14a6.294,6.294,0,1,1,2.109,0V28.713a2.307,2.307,0,0,1-2.3,2.3H51.85a19.3,19.3,0,1,0,0,30.966h4.975a2.306,2.306,0,0,1,2.3,2.3V79.005a6.292,6.292,0,1,1-2.109,0Z"/></svg>