<svg xmlns="http://www.w3.org/2000/svg" viewBox="0 0 100 125" fill="none" x="0px" y="0px"><path d="M26.2981 71.7524C34.2133 71.7524 40.6078 78.1859 40.6078 86.0621V93.4704H11.9495V86.0621C11.9495 78.147 18.383 71.7524 26.2591 71.7524H26.2981Z" fill="rgb(120, 214, 204)"/><path fill-rule="evenodd" clip-rule="evenodd" d="M26.2592 73.7021C19.4563 73.7021 13.8991 79.2272 13.8991 86.0622V91.5209H38.6583V86.0622C38.6583 79.2593 33.1332 73.7021 26.2982 73.7021H26.2592ZM10 86.0622C10 77.0669 17.3098 69.803 26.2592 69.803H26.2982C35.2935 69.803 42.5574 77.1128 42.5574 86.0622V95.42H10V86.0622Z" fill="rgb(120, 214, 204)"/><path d="M26.2982 71.7525C31.531 71.7525 35.773 67.5104 35.773 62.2777C35.773 57.0449 31.531 52.8029 26.2982 52.8029C21.0654 52.8029 16.8234 57.0449 16.8234 62.2777C16.8234 67.5104 21.0654 71.7525 26.2982 71.7525Z" fill="rgb(120, 214, 204)"/><path fill-rule="evenodd" clip-rule="evenodd" d="M26.2983 54.7524C22.1422 54.7524 18.773 58.1216 18.773 62.2777C18.773 66.4338 22.1422 69.8029 26.2983 69.8029C30.4543 69.8029 33.8235 66.4338 33.8235 62.2777C33.8235 58.1216 30.4543 54.7524 26.2983 54.7524ZM14.8739 62.2777C14.8739 55.9682 19.9888 50.8533 26.2983 50.8533C32.6077 50.8533 37.7226 55.9682 37.7226 62.2777C37.7226 68.5872 32.6077 73.702 26.2983 73.702C19.9888 73.702 14.8739 68.5872 14.8739 62.2777Z" fill="rgb(120, 214, 204)"/><path d="M73.5943 71.7524C81.5094 71.7524 87.904 78.1859 87.904 86.0621V93.4704H59.2456V86.0621C59.2456 78.147 65.6791 71.7524 73.5553 71.7524H73.5943Z" fill="rgb(120, 214, 204)"/><path fill-rule="evenodd" clip-rule="evenodd" d="M73.5552 73.7021C66.7523 73.7021 61.1951 79.2272 61.1951 86.0622V91.5209H85.9544V86.0622C85.9544 79.2593 80.4292 73.7021 73.5942 73.7021H73.5552ZM57.296 86.0622C57.296 77.0669 64.6058 69.803 73.5552 69.803H73.5942C82.5896 69.803 89.8535 77.1128 89.8535 86.0622V95.42H57.296V86.0622Z" fill="rgb(120, 214, 204)"/><path d="M73.5942 71.7525C78.827 71.7525 83.069 67.5104 83.069 62.2777C83.069 57.0449 78.827 52.8029 73.5942 52.8029C68.3614 52.8029 64.1194 57.0449 64.1194 62.2777C64.1194 67.5104 68.3614 71.7525 73.5942 71.7525Z" fill="rgb(120, 214, 204)"/><path fill-rule="evenodd" clip-rule="evenodd" d="M73.5943 54.7524C69.4382 54.7524 66.069 58.1216 66.069 62.2777C66.069 66.4338 69.4382 69.8029 73.5943 69.8029C77.7504 69.8029 81.1195 66.4338 81.1195 62.2777C81.1195 58.1216 77.7504 54.7524 73.5943 54.7524ZM62.1699 62.2777C62.1699 55.9682 67.2848 50.8533 73.5943 50.8533C79.9038 50.8533 85.0186 55.9682 85.0186 62.2777C85.0186 68.5872 79.9038 73.702 73.5943 73.702C67.2848 73.702 62.1699 68.5872 62.1699 62.2777Z" fill="rgb(120, 214, 204)"/><path fill-rule="evenodd" clip-rule="evenodd" d="M62.9886 12.8372C62.9886 8.52422 66.5129 5 70.8258 5C75.1304 5 78.663 8.47684 78.663 12.8372V14.3968H87.0071C88.0838 14.3968 88.9566 15.2697 88.9566 16.3464V41.3786C88.9566 42.4553 88.0838 43.3281 87.0071 43.3281H82.743L81.2124 49.2006C81.0508 49.8204 80.5951 50.3213 79.9933 50.5406C79.3914 50.7599 78.7203 50.6695 78.1978 50.2989L68.3719 43.3281H50.1606C49.0839 43.3281 48.2111 42.4553 48.2111 41.3786V34.5551C48.2111 33.4784 49.0839 32.6056 50.1606 32.6056H53.2019C55.3614 32.6056 57.14 30.827 57.14 28.6675C57.14 26.4995 55.392 24.7294 53.2019 24.7294H50.1606C49.0839 24.7294 48.2111 23.8566 48.2111 22.7799V16.3464C48.2111 15.2697 49.0839 14.3968 50.1606 14.3968H62.9886V12.8372ZM70.8258 8.8991C68.6663 8.8991 66.8877 10.6776 66.8877 12.8372V16.3464C66.8877 17.4231 66.0149 18.2959 64.9382 18.2959H52.1102V20.8303H53.2019C57.5622 20.8303 61.0391 24.363 61.0391 28.6675C61.0391 32.9805 57.5148 36.5047 53.2019 36.5047H52.1102V39.429H68.9932C69.3974 39.429 69.7916 39.5546 70.1213 39.7885L78.1514 45.4853L79.3499 40.8869C79.5737 40.0282 80.3491 39.429 81.2364 39.429H85.0575V18.2959H76.7134C75.6367 18.2959 74.7639 17.4231 74.7639 16.3464V12.8372C74.7639 10.647 72.9938 8.8991 70.8258 8.8991Z" fill="rgb(120, 214, 204)"/><path d="M53.3969 22.8188H48.8739V16.3853H35.656V18.3348C35.656 21.61 33.0046 24.2224 29.7683 24.2224C26.5321 24.2224 23.8807 21.571 23.8807 18.3348V16.3853H12.0275V41.4564H17.7981L19.7087 48.7867L30.0413 41.4564H48.8739V34.633H53.3969C56.6721 34.633 59.2845 31.9816 59.2845 28.7454C59.2845 25.5091 56.6331 22.8578 53.3969 22.8578V22.8188Z" fill="rgb(120, 214, 204)"/><path fill-rule="evenodd" clip-rule="evenodd" d="M10.078 16.3853C10.078 15.3086 10.9508 14.4358 12.0276 14.4358H23.8808C24.9575 14.4358 25.8304 15.3086 25.8304 16.3853V18.3349C25.8304 20.4944 27.6089 22.273 29.7684 22.273C31.9364 22.273 33.7065 20.525 33.7065 18.3349V16.3853C33.7065 15.3086 34.5794 14.4358 35.6561 14.4358H48.874C49.9507 14.4358 50.8236 15.3086 50.8236 16.3853V20.8693H53.397C53.5511 20.8693 53.7011 20.8872 53.845 20.921C57.9513 21.1549 61.2341 24.5828 61.2341 28.7455C61.2341 33.05 57.7573 36.5826 53.397 36.5826H50.8236V41.4565C50.8236 42.5332 49.9507 43.4061 48.874 43.4061H30.6627L20.8368 50.3769C20.3144 50.7475 19.6432 50.8378 19.0414 50.6186C18.4395 50.3993 17.9838 49.8984 17.8223 49.2785L16.2917 43.4061H12.0276C10.9508 43.4061 10.078 42.5332 10.078 41.4565V16.3853ZM53.0071 24.7684H48.874C47.7973 24.7684 46.9245 23.8955 46.9245 22.8188V18.3349L37.6056 18.3349C37.6056 22.6952 34.073 26.1721 29.7684 26.1721C25.4555 26.1721 21.9313 22.6478 21.9313 18.3349L13.9771 18.3349V39.507H17.7982C18.6855 39.507 19.4609 40.1062 19.6847 40.9648L20.8833 45.5633L28.9133 39.8665C29.243 39.6326 29.6372 39.507 30.0414 39.507H46.9245V34.6331C46.9245 33.5564 47.7973 32.6836 48.874 32.6836H53.397C55.5871 32.6836 57.3351 30.9134 57.3351 28.7455C57.3351 26.5859 55.5565 24.8074 53.397 24.8074C53.2634 24.8074 53.133 24.794 53.0071 24.7684Z" fill="rgb(120, 214, 204)"/></svg>