<svg xmlns="http://www.w3.org/2000/svg" xmlns:xlink="http://www.w3.org/1999/xlink" version="1.1" x="0px" y="0px" viewBox="0 0 53 66.25" style="enable-background:new 0 0 53 53;" xml:space="preserve"><g><path fill="rgb(120, 214, 204)" d="M5.3599524,27.7340298C4.8971229,28.0029526,4.9765325,27.9567833,5.3599524,27.7340298L5.3599524,27.7340298z"/><path fill="rgb(120, 214, 204)" d="M4.1113701,32.2545128c12.3110218,7.1076927,14.8087597,8.5498009,15.2261848,8.7907677   c-0.0031204-0.0018463,0.0036297,0.0021019,0.0219688,0.0126724c0.0040131,0.0023575,0.0103817,0.0059853,0.0138836,0.0080223   c-0.0028667-0.0016556-0.0054131-0.0031204-0.008215-0.0047112c0.0047131,0.002739,0.0122261,0.0070686,0.0183392,0.0105705   c0.0090427,0.0052223,0.0179577,0.0103149,0.0226707,0.0130539c-0.0023556-0.0013351-0.0056038-0.0032463-0.0085964-0.0049019   c0.0454044,0.0262375,0.1183815,0.0683289,0.2420483,0.1397133c-0.0005093,0.1964569,0.0078964-2.8917274,0.0087242-3.1993027   L4.1206036,29.0555267C4.1212406,28.8483105,4.1116881,32.1473389,4.1113701,32.2545128z"/><path fill="rgb(120, 214, 204)" d="M19.3734074,41.0659752c0.0087872,0.0050316,0.0168743,0.0097427,0.0241985,0.0140114   c-0.0048409-0.002739-0.0099354-0.0057297-0.0140743-0.008152C19.3798389,41.0697327,19.3778648,41.0685234,19.3734074,41.0659752z   "/><path fill="rgb(120, 214, 204)" d="M32.8307419,11.7697887C14.1400843,22.6315079,7.243556,26.6392994,5.5164151,27.6430302   c2.185895-1.2701702,10.666666-6.1984634-0.8721671,0.5074062l15.5270109,8.9657593   c-0.1527061,0.088707,12.6164341-7.332037,28.1847744-16.3807106L32.8307419,11.7697887z M18.694191,31.51894c0,0,0,0,0,0.0086613   c-1.111414,0.6375675-2.8432674,0.6375675-3.9546824,0c-1.2579432-0.7495823-1.2493467-2.067894,0.0085335-2.7916222   c1.1115417-0.6461658,2.8519278-0.6461658,3.9634066,0C19.9607964,29.4511738,19.9693279,30.778019,18.694191,31.51894z    M38.2470169,20.1565037c-1.1115417,0.6462288-2.8521194,0.6462288-3.9464035-0.0085983   c-1.2580719-0.7237911-1.2666702-2.0421677,0-2.7832165c1.1201363-0.6375694,2.8606529-0.6375694,3.9636612,0   C39.5222816,18.0971413,39.5222816,19.4241142,38.2470169,20.1565037z"/><path fill="rgb(120, 214, 204)" d="M2.5081511,25.0993786L2.5,28.2991943l0.5778999,0.3348942l0.0013373-0.4816151   c0.0005095-0.1864548,0.1003604-0.3586483,0.2613447-0.4513664c0.0006368-0.0003815,0.0014646-0.0001907,0.0021014-0.0005722   c-0.1170447,0.0682011,1.7178435-1.0012474,1.822216-1.0621262L2.5081511,25.0993786z"/><path fill="rgb(120, 214, 204)" d="M22.3646679,16.6456089c0.2047329,0.1178722-3.0750008-1.7709532-3.1809006-1.8318949l-2.5162697,1.4608297   l3.1821747,1.8306847C19.9974747,18.0193233,22.2665997,16.7024765,22.3646679,16.6456089z"/><polygon fill="rgb(120, 214, 204)" points="48.8685341,22.8505688 48.8731194,21.6428051 47.8307343,22.2513981  "/><path fill="rgb(120, 214, 204)" d="M25.6200771,14.7534723c-0.1530247-0.0883884-2.5034065-1.44631-2.663372-1.5386467l-0.0066223,2.5637741   l0.4528961,0.2633829C23.2600155,16.125021,25.5144939,14.8148603,25.6200771,14.7534723z"/><polygon fill="rgb(120, 214, 204)" points="29.1763744,12.6864052 25.9960461,10.8492241 23.4786301,12.3112001 26.659914,14.1490173  "/><path fill="rgb(120, 214, 204)" d="M15.544302,20.6055775L12.36028,18.7685242l-2.5094557,1.4615307   c-0.160347-0.0928478,3.0464725,1.7642021,3.175808,1.8391533L15.544302,20.6055775z"/><polygon fill="rgb(120, 214, 204)" points="11.9868574,22.6728992 9.3285809,21.1333618 9.3143167,23.7085991 9.7575331,23.9663773  "/><polygon fill="rgb(120, 214, 204)" points="18.8085613,18.7105751 16.1439171,17.17766 16.1372948,19.7435989 16.5845852,20.0034161  "/><path fill="rgb(120, 214, 204)" d="M8.7201786,24.5701942l-3.1737061-1.8371811L3.0282929,24.195116   c-0.2044141-0.1184444,3.0655129,1.7758579,3.1712224,1.8371181L8.7201786,24.5701942z"/><path fill="rgb(120, 214, 204)" d="M36.9307404,31.750164l0.7178078,0.4126511c0.1620026,0.0927162,0.2618523,0.2659264,0.2618523,0.4523849v0.3260422   l2.2033463,1.2743111c-0.0005112,0.2072144,0.0078964-3.0874825,0.0081482-3.1945934l-3.184021-1.8382626L36.9307404,31.750164z"/><polygon fill="rgb(120, 214, 204)" points="36.1482353,32.5041428 36.1472168,32.5031204 33.1569099,30.777956 30.6437626,32.2380219 33.8290596,34.0781288    36.3441811,32.6166  "/><path fill="rgb(120, 214, 204)" d="M27.5259056,42.1356812l2.5115566-1.4590454l0.0086594-3.1929398l-2.5113659,1.4591103   C27.5351391,38.8164635,27.5278797,41.4360886,27.5259056,42.1356812z"/><path fill="rgb(120, 214, 204)" d="M30.1079559,35.7067566l0.7232189,0.4174919c0.1229668,0.0703659,0.1928234,0.1926956,0.2273388,0.3264236   c0.0108261,0.0417747,0.0333691,0.0797272,0.0334949,0.1239243c0,0.0003815-0.0002537,0.0006371-0.0002537,0.0010185   s0.0002537,0.0006371,0.0002537,0.0010185l-0.0008907,0.3305016l2.2068443,1.2735443l0.0092354-3.1988602l-3.1850414-1.838707   L30.1079559,35.7067566z"/><polygon fill="rgb(120, 214, 204)" points="34.3444862,38.1733551 36.8527985,36.7162209 36.8614578,33.5233459 34.3522568,34.9814377  "/><path fill="rgb(120, 214, 204)" d="M43.7440414,27.785675l0.717804,0.4126492c0.1620026,0.0927181,0.2618561,0.2659302,0.2618561,0.4523849v0.3362331   l2.2033424,1.2746277l0.008152-3.1982861l-3.1844063-1.8395367C43.751236,25.0572872,43.7443581,27.680603,43.7440414,27.785675z"/><polygon fill="rgb(120, 214, 204)" points="39.9736481,26.8156948 37.4608803,28.2758236 40.6465607,30.1163788 43.1599617,28.6553593  "/><path fill="rgb(120, 214, 204)" d="M41.1576576,34.2145348l2.5104752-1.4597473l0.0091705-3.1924286l-2.5115585,1.459938   C41.166256,30.8150806,41.1579781,34.1073608,41.1576576,34.2145348z"/><path fill="rgb(120, 214, 204)" d="M29.0786877,33.150116l-1.6941528,0.9845009l1.6833916,0.9717636   C29.0673542,35.2134895,29.077734,33.3321762,29.0786877,33.150116z"/><path fill="rgb(120, 214, 204)" d="M42.7073212,25.2282677c0.1057091-0.0613232-1.5757065,0.9139423-1.6900787,0.9802971l1.6848564,0.9759026   C42.7017822,27.3101101,42.7070694,25.3353786,42.7073212,25.2282677z"/><path fill="rgb(120, 214, 204)" d="M47.9815903,27.0606098l-0.0091705,3.1928101l2.5115585-1.4590473l0.0086594-3.1931915   C50.6537514,25.5075073,48.1183128,26.9811363,47.9815903,27.0606098z"/><path fill="rgb(120, 214, 204)" d="M35.8944702,29.1859436l-1.6972733,0.986475l1.6917343,0.9766655   C35.8886757,31.2561951,35.8940887,29.3255959,35.8944702,29.1859436z"/><path fill="rgb(120, 214, 204)" d="M49.1419754,24.2132015c-0.0050926-0.002737-0.0111427-0.0014648-0.0161743-0.0043297l-2.3387909-1.3526363   l-2.5141678,1.460638l3.1870804,1.8396015l2.51614-1.4615936L49.1419754,24.2132015z"/><path fill="rgb(120, 214, 204)" d="M23.2954845,40.3016853l3.1870155,1.840107c-0.0005093,0.1964569,0.0078964-2.8917274,0.0087242-3.1993027   l-3.1865692-1.8401108L23.2954845,40.3016853z"/><path fill="rgb(120, 214, 204)" d="M20.6830597,41.2135887l1.5689583-0.9118423l0.0092335-3.1921082l-1.5693417,0.9120941   C20.6922932,37.8953896,20.6850338,40.5139961,20.6830597,41.2135887z"/><path fill="rgb(120, 214, 204)" d="M26.3381367,34.7400894l-2.5114918,1.4596825c-0.149395-0.0862236,3.0786304,1.7768135,3.1862507,1.8389626   l2.5074806-1.4567528C29.7248535,36.7002983,26.4438457,34.8012848,26.3381367,34.7400894z"/></g></svg>